<?xml version="1.0" encoding="utf-8"?>
<svg xmlns="http://www.w3.org/2000/svg" xmlns:xlink="http://www.w3.org/1999/xlink" width="600" height="400" viewBox="0 0 2400 1600">
<defs>
  <clipPath id="clip130">
    <rect x="0" y="0" width="2400" height="1600"/>
  </clipPath>
</defs>
<path clip-path="url(#clip130)" d="M0 1600 L2400 1600 L2400 0 L0 0  Z" fill="#ffffff" fill-rule="evenodd" fill-opacity="1"/>
<defs>
  <clipPath id="clip131">
    <rect x="480" y="0" width="1681" height="1600"/>
  </clipPath>
</defs>
<path clip-path="url(#clip130)" d="M148.207 1486.45 L2352.76 1486.45 L2352.76 47.2441 L148.207 47.2441  Z" fill="#ffffff" fill-rule="evenodd" fill-opacity="1"/>
<defs>
  <clipPath id="clip132">
    <rect x="148" y="47" width="2206" height="1440"/>
  </clipPath>
</defs>
<polyline clip-path="url(#clip132)" style="stroke:#000000; stroke-linecap:round; stroke-linejoin:round; stroke-width:2; stroke-opacity:0.1; fill:none" points="210.6,1486.45 210.6,47.2441 "/>
<polyline clip-path="url(#clip132)" style="stroke:#000000; stroke-linecap:round; stroke-linejoin:round; stroke-width:2; stroke-opacity:0.1; fill:none" points="730.541,1486.45 730.541,47.2441 "/>
<polyline clip-path="url(#clip132)" style="stroke:#000000; stroke-linecap:round; stroke-linejoin:round; stroke-width:2; stroke-opacity:0.1; fill:none" points="1250.48,1486.45 1250.48,47.2441 "/>
<polyline clip-path="url(#clip132)" style="stroke:#000000; stroke-linecap:round; stroke-linejoin:round; stroke-width:2; stroke-opacity:0.1; fill:none" points="1770.42,1486.45 1770.42,47.2441 "/>
<polyline clip-path="url(#clip132)" style="stroke:#000000; stroke-linecap:round; stroke-linejoin:round; stroke-width:2; stroke-opacity:0.1; fill:none" points="2290.36,1486.45 2290.36,47.2441 "/>
<polyline clip-path="url(#clip130)" style="stroke:#000000; stroke-linecap:round; stroke-linejoin:round; stroke-width:4; stroke-opacity:1; fill:none" points="148.207,1486.45 2352.76,1486.45 "/>
<polyline clip-path="url(#clip130)" style="stroke:#000000; stroke-linecap:round; stroke-linejoin:round; stroke-width:4; stroke-opacity:1; fill:none" points="148.207,47.2441 2352.76,47.2441 "/>
<polyline clip-path="url(#clip130)" style="stroke:#000000; stroke-linecap:round; stroke-linejoin:round; stroke-width:4; stroke-opacity:1; fill:none" points="210.6,1486.45 210.6,1467.55 "/>
<polyline clip-path="url(#clip130)" style="stroke:#000000; stroke-linecap:round; stroke-linejoin:round; stroke-width:4; stroke-opacity:1; fill:none" points="730.541,1486.45 730.541,1467.55 "/>
<polyline clip-path="url(#clip130)" style="stroke:#000000; stroke-linecap:round; stroke-linejoin:round; stroke-width:4; stroke-opacity:1; fill:none" points="1250.48,1486.45 1250.48,1467.55 "/>
<polyline clip-path="url(#clip130)" style="stroke:#000000; stroke-linecap:round; stroke-linejoin:round; stroke-width:4; stroke-opacity:1; fill:none" points="1770.42,1486.45 1770.42,1467.55 "/>
<polyline clip-path="url(#clip130)" style="stroke:#000000; stroke-linecap:round; stroke-linejoin:round; stroke-width:4; stroke-opacity:1; fill:none" points="2290.36,1486.45 2290.36,1467.55 "/>
<path clip-path="url(#clip130)" d="M167.628 1532.67 Q167.628 1525.23 169.506 1521.18 Q172.124 1515.15 178.3 1515.15 Q179.61 1515.15 180.968 1515.52 Q182.352 1515.87 184.081 1517.23 Q185.835 1518.59 186.897 1520.81 Q188.923 1525.11 188.923 1532.67 Q188.923 1540.05 187.045 1544.08 Q184.303 1549.96 178.251 1549.96 Q175.978 1549.96 173.656 1548.8 Q171.359 1547.64 169.901 1544.85 Q167.628 1540.67 167.628 1532.67 M171.828 1532.05 Q171.828 1539.68 172.371 1542.72 Q172.989 1546.01 174.669 1547.44 Q176.373 1548.85 178.251 1548.85 Q180.277 1548.85 181.956 1547.34 Q183.661 1545.81 184.18 1542.52 Q184.748 1539.29 184.723 1532.05 Q184.723 1525.01 184.229 1522.19 Q183.562 1518.91 181.783 1517.6 Q180.03 1516.26 178.251 1516.26 Q177.584 1516.26 176.868 1516.46 Q176.176 1516.66 175.163 1517.23 Q174.15 1517.8 173.36 1519.2 Q172.594 1520.61 172.223 1522.74 Q171.828 1525.48 171.828 1532.05 Z" fill="#000000" fill-rule="nonzero" fill-opacity="1" /><path clip-path="url(#clip130)" d="M196.013 1548.03 Q195.247 1547.22 195.247 1546.16 Q195.247 1545.09 196.013 1544.33 Q196.778 1543.54 197.939 1543.54 Q199.051 1543.54 199.792 1544.28 Q200.558 1544.99 200.558 1546.18 Q200.558 1547.34 199.743 1548.11 Q198.952 1548.85 197.939 1548.85 Q196.778 1548.85 196.013 1548.03 Z" fill="#000000" fill-rule="nonzero" fill-opacity="1" /><path clip-path="url(#clip130)" d="M206.981 1532.67 Q206.981 1525.23 208.858 1521.18 Q211.477 1515.15 217.653 1515.15 Q218.962 1515.15 220.321 1515.52 Q221.704 1515.87 223.433 1517.23 Q225.187 1518.59 226.25 1520.81 Q228.275 1525.11 228.275 1532.67 Q228.275 1540.05 226.398 1544.08 Q223.656 1549.96 217.603 1549.96 Q215.331 1549.96 213.009 1548.8 Q210.711 1547.64 209.254 1544.85 Q206.981 1540.67 206.981 1532.67 M211.18 1532.05 Q211.18 1539.68 211.724 1542.72 Q212.342 1546.01 214.021 1547.44 Q215.726 1548.85 217.603 1548.85 Q219.629 1548.85 221.309 1547.34 Q223.013 1545.81 223.532 1542.52 Q224.1 1539.29 224.076 1532.05 Q224.076 1525.01 223.582 1522.19 Q222.915 1518.91 221.136 1517.6 Q219.382 1516.26 217.603 1516.26 Q216.936 1516.26 216.22 1516.46 Q215.528 1516.66 214.515 1517.23 Q213.503 1517.8 212.712 1519.2 Q211.946 1520.61 211.576 1522.74 Q211.18 1525.48 211.18 1532.05 Z" fill="#000000" fill-rule="nonzero" fill-opacity="1" /><path clip-path="url(#clip130)" d="M232.277 1532.67 Q232.277 1525.23 234.155 1521.18 Q236.773 1515.15 242.949 1515.15 Q244.258 1515.15 245.617 1515.52 Q247 1515.87 248.73 1517.23 Q250.484 1518.59 251.546 1520.81 Q253.571 1525.11 253.571 1532.67 Q253.571 1540.05 251.694 1544.08 Q248.952 1549.96 242.9 1549.96 Q240.627 1549.96 238.305 1548.8 Q236.007 1547.64 234.55 1544.85 Q232.277 1540.67 232.277 1532.67 M236.477 1532.05 Q236.477 1539.68 237.02 1542.72 Q237.638 1546.01 239.318 1547.44 Q241.022 1548.85 242.9 1548.85 Q244.925 1548.85 246.605 1547.34 Q248.31 1545.81 248.828 1542.52 Q249.397 1539.29 249.372 1532.05 Q249.372 1525.01 248.878 1522.19 Q248.211 1518.91 246.432 1517.6 Q244.678 1516.26 242.9 1516.26 Q242.233 1516.26 241.516 1516.46 Q240.825 1516.66 239.812 1517.23 Q238.799 1517.8 238.008 1519.2 Q237.243 1520.61 236.872 1522.74 Q236.477 1525.48 236.477 1532.05 Z" fill="#000000" fill-rule="nonzero" fill-opacity="1" /><path clip-path="url(#clip130)" d="M687.841 1532.67 Q687.841 1525.23 689.718 1521.18 Q692.337 1515.15 698.513 1515.15 Q699.822 1515.15 701.181 1515.52 Q702.564 1515.87 704.293 1517.23 Q706.047 1518.59 707.11 1520.81 Q709.135 1525.11 709.135 1532.67 Q709.135 1540.05 707.258 1544.08 Q704.516 1549.96 698.463 1549.96 Q696.191 1549.96 693.869 1548.8 Q691.571 1547.64 690.114 1544.85 Q687.841 1540.67 687.841 1532.67 M692.041 1532.05 Q692.041 1539.68 692.584 1542.72 Q693.202 1546.01 694.881 1547.44 Q696.586 1548.85 698.463 1548.85 Q700.489 1548.85 702.169 1547.34 Q703.873 1545.81 704.392 1542.52 Q704.96 1539.29 704.936 1532.05 Q704.936 1525.01 704.442 1522.19 Q703.775 1518.91 701.996 1517.6 Q700.242 1516.26 698.463 1516.26 Q697.796 1516.26 697.08 1516.46 Q696.388 1516.66 695.375 1517.23 Q694.363 1517.8 693.572 1519.2 Q692.806 1520.61 692.436 1522.74 Q692.041 1525.48 692.041 1532.05 Z" fill="#000000" fill-rule="nonzero" fill-opacity="1" /><path clip-path="url(#clip130)" d="M716.225 1548.03 Q715.459 1547.22 715.459 1546.16 Q715.459 1545.09 716.225 1544.33 Q716.991 1543.54 718.152 1543.54 Q719.264 1543.54 720.005 1544.28 Q720.771 1544.99 720.771 1546.18 Q720.771 1547.34 719.955 1548.11 Q719.165 1548.85 718.152 1548.85 Q716.991 1548.85 716.225 1548.03 Z" fill="#000000" fill-rule="nonzero" fill-opacity="1" /><path clip-path="url(#clip130)" d="M727.737 1548.85 Q727.737 1547.93 727.811 1547.66 Q727.91 1547.39 728.305 1546.97 L738.013 1536.15 Q743.325 1530.17 743.325 1524.96 Q743.325 1521.58 741.546 1519.15 Q739.792 1516.73 736.556 1516.73 Q734.333 1516.73 732.455 1518.09 Q730.578 1519.45 729.713 1521.87 Q729.861 1521.82 730.38 1521.82 Q731.64 1521.82 732.332 1522.61 Q733.048 1523.4 733.048 1524.47 Q733.048 1525.82 732.159 1526.49 Q731.294 1527.13 730.43 1527.13 Q730.084 1527.13 729.614 1527.06 Q729.17 1526.99 728.453 1526.29 Q727.737 1525.58 727.737 1524.32 Q727.737 1520.78 730.405 1517.97 Q733.098 1515.15 737.198 1515.15 Q741.842 1515.15 744.881 1517.92 Q747.944 1520.66 747.944 1524.96 Q747.944 1526.47 747.475 1527.85 Q747.03 1529.21 746.413 1530.27 Q745.82 1531.33 744.189 1533.04 Q742.559 1534.74 741.25 1535.95 Q739.94 1537.16 737.001 1539.73 L731.64 1544.94 L740.756 1544.94 Q745.202 1544.94 745.548 1544.55 Q746.042 1543.83 746.66 1540.05 L747.944 1540.05 L746.511 1548.85 L727.737 1548.85 Z" fill="#000000" fill-rule="nonzero" fill-opacity="1" /><path clip-path="url(#clip130)" d="M753.033 1540.7 Q753.033 1539.19 753.848 1538.62 Q754.664 1538.03 755.528 1538.03 Q756.689 1538.03 757.356 1538.77 Q758.048 1539.49 758.048 1540.5 Q758.048 1541.51 757.356 1542.25 Q756.689 1542.97 755.528 1542.97 Q754.96 1542.97 754.664 1542.87 Q755.331 1545.19 757.356 1546.87 Q759.407 1548.55 762.099 1548.55 Q765.484 1548.55 767.509 1545.27 Q768.72 1543.14 768.72 1538.32 Q768.72 1534.08 767.806 1531.95 Q766.398 1528.71 763.507 1528.71 Q759.407 1528.71 756.986 1532.25 Q756.689 1532.69 756.343 1532.72 Q755.849 1532.72 755.726 1532.44 Q755.627 1532.15 755.627 1531.38 L755.627 1516.41 Q755.627 1515.2 756.121 1515.2 Q756.319 1515.2 756.739 1515.35 Q759.925 1516.76 763.458 1516.78 Q767.089 1516.78 770.35 1515.3 Q770.597 1515.15 770.745 1515.15 Q771.239 1515.15 771.264 1515.72 Q771.264 1515.92 770.844 1516.51 Q770.449 1517.08 769.584 1517.85 Q768.72 1518.59 767.608 1519.3 Q766.496 1520.02 764.866 1520.51 Q763.26 1520.98 761.482 1520.98 Q759.357 1520.98 757.183 1520.32 L757.183 1530.17 Q759.802 1527.6 763.606 1527.6 Q767.658 1527.6 770.449 1530.86 Q773.24 1534.12 773.24 1538.67 Q773.24 1543.44 769.93 1546.7 Q766.645 1549.96 762.198 1549.96 Q758.147 1549.96 755.578 1547.07 Q753.033 1544.18 753.033 1540.7 Z" fill="#000000" fill-rule="nonzero" fill-opacity="1" /><path clip-path="url(#clip130)" d="M1207.51 1532.67 Q1207.51 1525.23 1209.39 1521.18 Q1212.01 1515.15 1218.18 1515.15 Q1219.49 1515.15 1220.85 1515.52 Q1222.23 1515.87 1223.96 1517.23 Q1225.72 1518.59 1226.78 1520.81 Q1228.8 1525.11 1228.8 1532.67 Q1228.8 1540.05 1226.93 1544.08 Q1224.18 1549.96 1218.13 1549.96 Q1215.86 1549.96 1213.54 1548.8 Q1211.24 1547.64 1209.78 1544.85 Q1207.51 1540.67 1207.51 1532.67 M1211.71 1532.05 Q1211.71 1539.68 1212.25 1542.72 Q1212.87 1546.01 1214.55 1547.44 Q1216.25 1548.85 1218.13 1548.85 Q1220.16 1548.85 1221.84 1547.34 Q1223.54 1545.81 1224.06 1542.52 Q1224.63 1539.29 1224.6 1532.05 Q1224.6 1525.01 1224.11 1522.19 Q1223.44 1518.91 1221.67 1517.6 Q1219.91 1516.26 1218.13 1516.26 Q1217.47 1516.26 1216.75 1516.46 Q1216.06 1516.66 1215.04 1517.23 Q1214.03 1517.8 1213.24 1519.2 Q1212.48 1520.61 1212.1 1522.74 Q1211.71 1525.48 1211.71 1532.05 Z" fill="#000000" fill-rule="nonzero" fill-opacity="1" /><path clip-path="url(#clip130)" d="M1235.89 1548.03 Q1235.13 1547.22 1235.13 1546.16 Q1235.13 1545.09 1235.89 1544.33 Q1236.66 1543.54 1237.82 1543.54 Q1238.93 1543.54 1239.67 1544.28 Q1240.44 1544.99 1240.44 1546.18 Q1240.44 1547.34 1239.62 1548.11 Q1238.83 1548.85 1237.82 1548.85 Q1236.66 1548.85 1235.89 1548.03 Z" fill="#000000" fill-rule="nonzero" fill-opacity="1" /><path clip-path="url(#clip130)" d="M1247.41 1540.7 Q1247.41 1539.19 1248.22 1538.62 Q1249.04 1538.03 1249.9 1538.03 Q1251.06 1538.03 1251.73 1538.77 Q1252.42 1539.49 1252.42 1540.5 Q1252.42 1541.51 1251.73 1542.25 Q1251.06 1542.97 1249.9 1542.97 Q1249.33 1542.97 1249.04 1542.87 Q1249.7 1545.19 1251.73 1546.87 Q1253.78 1548.55 1256.47 1548.55 Q1259.86 1548.55 1261.88 1545.27 Q1263.09 1543.14 1263.09 1538.32 Q1263.09 1534.08 1262.18 1531.95 Q1260.77 1528.71 1257.88 1528.71 Q1253.78 1528.71 1251.36 1532.25 Q1251.06 1532.69 1250.72 1532.72 Q1250.22 1532.72 1250.1 1532.44 Q1250 1532.15 1250 1531.38 L1250 1516.41 Q1250 1515.2 1250.49 1515.2 Q1250.69 1515.2 1251.11 1515.35 Q1254.3 1516.76 1257.83 1516.78 Q1261.46 1516.78 1264.72 1515.3 Q1264.97 1515.15 1265.12 1515.15 Q1265.61 1515.15 1265.64 1515.72 Q1265.64 1515.92 1265.22 1516.51 Q1264.82 1517.08 1263.96 1517.85 Q1263.09 1518.59 1261.98 1519.3 Q1260.87 1520.02 1259.24 1520.51 Q1257.63 1520.98 1255.85 1520.98 Q1253.73 1520.98 1251.56 1520.32 L1251.56 1530.17 Q1254.17 1527.6 1257.98 1527.6 Q1262.03 1527.6 1264.82 1530.86 Q1267.61 1534.12 1267.61 1538.67 Q1267.61 1543.44 1264.3 1546.7 Q1261.02 1549.96 1256.57 1549.96 Q1252.52 1549.96 1249.95 1547.07 Q1247.41 1544.18 1247.41 1540.7 Z" fill="#000000" fill-rule="nonzero" fill-opacity="1" /><path clip-path="url(#clip130)" d="M1272.16 1532.67 Q1272.16 1525.23 1274.04 1521.18 Q1276.65 1515.15 1282.83 1515.15 Q1284.14 1515.15 1285.5 1515.52 Q1286.88 1515.87 1288.61 1517.23 Q1290.37 1518.59 1291.43 1520.81 Q1293.45 1525.11 1293.45 1532.67 Q1293.45 1540.05 1291.58 1544.08 Q1288.83 1549.96 1282.78 1549.96 Q1280.51 1549.96 1278.19 1548.8 Q1275.89 1547.64 1274.43 1544.85 Q1272.16 1540.67 1272.16 1532.67 M1276.36 1532.05 Q1276.36 1539.68 1276.9 1542.72 Q1277.52 1546.01 1279.2 1547.44 Q1280.9 1548.85 1282.78 1548.85 Q1284.81 1548.85 1286.49 1547.34 Q1288.19 1545.81 1288.71 1542.52 Q1289.28 1539.29 1289.25 1532.05 Q1289.25 1525.01 1288.76 1522.19 Q1288.09 1518.91 1286.31 1517.6 Q1284.56 1516.26 1282.78 1516.26 Q1282.11 1516.26 1281.4 1516.46 Q1280.71 1516.66 1279.69 1517.23 Q1278.68 1517.8 1277.89 1519.2 Q1277.12 1520.61 1276.75 1522.74 Q1276.36 1525.48 1276.36 1532.05 Z" fill="#000000" fill-rule="nonzero" fill-opacity="1" /><path clip-path="url(#clip130)" d="M1727.72 1532.67 Q1727.72 1525.23 1729.6 1521.18 Q1732.22 1515.15 1738.39 1515.15 Q1739.7 1515.15 1741.06 1515.52 Q1742.45 1515.87 1744.17 1517.23 Q1745.93 1518.59 1746.99 1520.81 Q1749.02 1525.11 1749.02 1532.67 Q1749.02 1540.05 1747.14 1544.08 Q1744.4 1549.96 1738.34 1549.96 Q1736.07 1549.96 1733.75 1548.8 Q1731.45 1547.64 1730 1544.85 Q1727.72 1540.67 1727.72 1532.67 M1731.92 1532.05 Q1731.92 1539.68 1732.47 1542.72 Q1733.08 1546.01 1734.76 1547.44 Q1736.47 1548.85 1738.34 1548.85 Q1740.37 1548.85 1742.05 1547.34 Q1743.75 1545.81 1744.27 1542.52 Q1744.84 1539.29 1744.82 1532.05 Q1744.82 1525.01 1744.32 1522.19 Q1743.66 1518.91 1741.88 1517.6 Q1740.12 1516.26 1738.34 1516.26 Q1737.68 1516.26 1736.96 1516.46 Q1736.27 1516.66 1735.26 1517.23 Q1734.24 1517.8 1733.45 1519.2 Q1732.69 1520.61 1732.32 1522.74 Q1731.92 1525.48 1731.92 1532.05 Z" fill="#000000" fill-rule="nonzero" fill-opacity="1" /><path clip-path="url(#clip130)" d="M1756.11 1548.03 Q1755.34 1547.22 1755.34 1546.16 Q1755.34 1545.09 1756.11 1544.33 Q1756.87 1543.54 1758.03 1543.54 Q1759.15 1543.54 1759.89 1544.28 Q1760.65 1544.99 1760.65 1546.18 Q1760.65 1547.34 1759.84 1548.11 Q1759.05 1548.85 1758.03 1548.85 Q1756.87 1548.85 1756.11 1548.03 Z" fill="#000000" fill-rule="nonzero" fill-opacity="1" /><path clip-path="url(#clip130)" d="M1767.94 1525.06 L1769.59 1514.66 L1770.85 1514.66 Q1771 1515.28 1771.25 1515.55 Q1771.52 1515.82 1772.95 1516.04 Q1774.41 1516.26 1777.35 1516.26 L1789.63 1516.26 Q1789.63 1517.43 1789.18 1518.04 L1782.34 1527.65 Q1780.17 1530.69 1779.2 1536.3 Q1778.64 1540.05 1778.66 1544.6 L1778.66 1547.17 Q1778.66 1549.96 1776.31 1549.96 Q1773.99 1549.96 1773.99 1547.17 Q1773.99 1537.51 1780.22 1528.15 Q1780.88 1527.18 1783.33 1523.75 Q1785.8 1520.32 1785.9 1520.17 L1775.42 1520.17 Q1770.83 1520.17 1770.46 1520.46 Q1769.97 1520.91 1769.2 1525.06 L1767.94 1525.06 Z" fill="#000000" fill-rule="nonzero" fill-opacity="1" /><path clip-path="url(#clip130)" d="M1792.91 1540.7 Q1792.91 1539.19 1793.73 1538.62 Q1794.55 1538.03 1795.41 1538.03 Q1796.57 1538.03 1797.24 1538.77 Q1797.93 1539.49 1797.93 1540.5 Q1797.93 1541.51 1797.24 1542.25 Q1796.57 1542.97 1795.41 1542.97 Q1794.84 1542.97 1794.55 1542.87 Q1795.21 1545.19 1797.24 1546.87 Q1799.29 1548.55 1801.98 1548.55 Q1805.37 1548.55 1807.39 1545.27 Q1808.6 1543.14 1808.6 1538.32 Q1808.6 1534.08 1807.69 1531.95 Q1806.28 1528.71 1803.39 1528.71 Q1799.29 1528.71 1796.87 1532.25 Q1796.57 1532.69 1796.22 1532.72 Q1795.73 1532.72 1795.61 1532.44 Q1795.51 1532.15 1795.51 1531.38 L1795.51 1516.41 Q1795.51 1515.2 1796 1515.2 Q1796.2 1515.2 1796.62 1515.35 Q1799.81 1516.76 1803.34 1516.78 Q1806.97 1516.78 1810.23 1515.3 Q1810.48 1515.15 1810.63 1515.15 Q1811.12 1515.15 1811.15 1515.72 Q1811.15 1515.92 1810.73 1516.51 Q1810.33 1517.08 1809.47 1517.85 Q1808.6 1518.59 1807.49 1519.3 Q1806.38 1520.02 1804.75 1520.51 Q1803.14 1520.98 1801.36 1520.98 Q1799.24 1520.98 1797.06 1520.32 L1797.06 1530.17 Q1799.68 1527.6 1803.49 1527.6 Q1807.54 1527.6 1810.33 1530.86 Q1813.12 1534.12 1813.12 1538.67 Q1813.12 1543.44 1809.81 1546.7 Q1806.53 1549.96 1802.08 1549.96 Q1798.03 1549.96 1795.46 1547.07 Q1792.91 1544.18 1792.91 1540.7 Z" fill="#000000" fill-rule="nonzero" fill-opacity="1" /><path clip-path="url(#clip130)" d="M2248.65 1519.97 L2248.65 1518.39 Q2254.73 1518.39 2257.87 1515.15 Q2258.73 1515.15 2258.88 1515.35 Q2259.03 1515.55 2259.03 1516.46 L2259.03 1544.85 Q2259.03 1546.35 2259.77 1546.82 Q2260.51 1547.29 2263.75 1547.29 L2265.35 1547.29 L2265.35 1548.85 Q2263.57 1548.7 2257.15 1548.7 Q2250.73 1548.7 2248.97 1548.85 L2248.97 1547.29 L2250.58 1547.29 Q2253.76 1547.29 2254.53 1546.85 Q2255.3 1546.38 2255.3 1544.85 L2255.3 1518.64 Q2252.65 1519.97 2248.65 1519.97 Z" fill="#000000" fill-rule="nonzero" fill-opacity="1" /><path clip-path="url(#clip130)" d="M2274.52 1548.03 Q2273.75 1547.22 2273.75 1546.16 Q2273.75 1545.09 2274.52 1544.33 Q2275.28 1543.54 2276.44 1543.54 Q2277.55 1543.54 2278.3 1544.28 Q2279.06 1544.99 2279.06 1546.18 Q2279.06 1547.34 2278.25 1548.11 Q2277.46 1548.85 2276.44 1548.85 Q2275.28 1548.85 2274.52 1548.03 Z" fill="#000000" fill-rule="nonzero" fill-opacity="1" /><path clip-path="url(#clip130)" d="M2285.48 1532.67 Q2285.48 1525.23 2287.36 1521.18 Q2289.98 1515.15 2296.16 1515.15 Q2297.47 1515.15 2298.82 1515.52 Q2300.21 1515.87 2301.94 1517.23 Q2303.69 1518.59 2304.75 1520.81 Q2306.78 1525.11 2306.78 1532.67 Q2306.78 1540.05 2304.9 1544.08 Q2302.16 1549.96 2296.11 1549.96 Q2293.83 1549.96 2291.51 1548.8 Q2289.21 1547.64 2287.76 1544.85 Q2285.48 1540.67 2285.48 1532.67 M2289.68 1532.05 Q2289.68 1539.68 2290.23 1542.72 Q2290.84 1546.01 2292.52 1547.44 Q2294.23 1548.85 2296.11 1548.85 Q2298.13 1548.85 2299.81 1547.34 Q2301.52 1545.81 2302.04 1542.52 Q2302.6 1539.29 2302.58 1532.05 Q2302.58 1525.01 2302.08 1522.19 Q2301.42 1518.91 2299.64 1517.6 Q2297.89 1516.26 2296.11 1516.26 Q2295.44 1516.26 2294.72 1516.46 Q2294.03 1516.66 2293.02 1517.23 Q2292.01 1517.8 2291.22 1519.2 Q2290.45 1520.61 2290.08 1522.74 Q2289.68 1525.48 2289.68 1532.05 Z" fill="#000000" fill-rule="nonzero" fill-opacity="1" /><path clip-path="url(#clip130)" d="M2310.78 1532.67 Q2310.78 1525.23 2312.66 1521.18 Q2315.28 1515.15 2321.45 1515.15 Q2322.76 1515.15 2324.12 1515.52 Q2325.5 1515.87 2327.23 1517.23 Q2328.99 1518.59 2330.05 1520.81 Q2332.07 1525.11 2332.07 1532.67 Q2332.07 1540.05 2330.2 1544.08 Q2327.46 1549.96 2321.4 1549.96 Q2319.13 1549.96 2316.81 1548.8 Q2314.51 1547.64 2313.05 1544.85 Q2310.78 1540.67 2310.78 1532.67 M2314.98 1532.05 Q2314.98 1539.68 2315.52 1542.72 Q2316.14 1546.01 2317.82 1547.44 Q2319.53 1548.85 2321.4 1548.85 Q2323.43 1548.85 2325.11 1547.34 Q2326.81 1545.81 2327.33 1542.52 Q2327.9 1539.29 2327.88 1532.05 Q2327.88 1525.01 2327.38 1522.19 Q2326.71 1518.91 2324.94 1517.6 Q2323.18 1516.26 2321.4 1516.26 Q2320.74 1516.26 2320.02 1516.46 Q2319.33 1516.66 2318.31 1517.23 Q2317.3 1517.8 2316.51 1519.2 Q2315.75 1520.61 2315.38 1522.74 Q2314.98 1525.48 2314.98 1532.05 Z" fill="#000000" fill-rule="nonzero" fill-opacity="1" /><polyline clip-path="url(#clip132)" style="stroke:#000000; stroke-linecap:round; stroke-linejoin:round; stroke-width:2; stroke-opacity:0.1; fill:none" points="148.207,1445.72 2352.76,1445.72 "/>
<polyline clip-path="url(#clip132)" style="stroke:#000000; stroke-linecap:round; stroke-linejoin:round; stroke-width:2; stroke-opacity:0.1; fill:none" points="148.207,1097.69 2352.76,1097.69 "/>
<polyline clip-path="url(#clip132)" style="stroke:#000000; stroke-linecap:round; stroke-linejoin:round; stroke-width:2; stroke-opacity:0.1; fill:none" points="148.207,749.664 2352.76,749.664 "/>
<polyline clip-path="url(#clip132)" style="stroke:#000000; stroke-linecap:round; stroke-linejoin:round; stroke-width:2; stroke-opacity:0.1; fill:none" points="148.207,401.637 2352.76,401.637 "/>
<polyline clip-path="url(#clip132)" style="stroke:#000000; stroke-linecap:round; stroke-linejoin:round; stroke-width:2; stroke-opacity:0.1; fill:none" points="148.207,53.6113 2352.76,53.6113 "/>
<polyline clip-path="url(#clip130)" style="stroke:#000000; stroke-linecap:round; stroke-linejoin:round; stroke-width:4; stroke-opacity:1; fill:none" points="148.207,1486.45 148.207,47.2441 "/>
<polyline clip-path="url(#clip130)" style="stroke:#000000; stroke-linecap:round; stroke-linejoin:round; stroke-width:4; stroke-opacity:1; fill:none" points="2352.76,1486.45 2352.76,47.2441 "/>
<polyline clip-path="url(#clip130)" style="stroke:#000000; stroke-linecap:round; stroke-linejoin:round; stroke-width:4; stroke-opacity:1; fill:none" points="148.207,1445.72 167.105,1445.72 "/>
<polyline clip-path="url(#clip130)" style="stroke:#000000; stroke-linecap:round; stroke-linejoin:round; stroke-width:4; stroke-opacity:1; fill:none" points="148.207,1097.69 167.105,1097.69 "/>
<polyline clip-path="url(#clip130)" style="stroke:#000000; stroke-linecap:round; stroke-linejoin:round; stroke-width:4; stroke-opacity:1; fill:none" points="148.207,749.664 167.105,749.664 "/>
<polyline clip-path="url(#clip130)" style="stroke:#000000; stroke-linecap:round; stroke-linejoin:round; stroke-width:4; stroke-opacity:1; fill:none" points="148.207,401.637 167.105,401.637 "/>
<polyline clip-path="url(#clip130)" style="stroke:#000000; stroke-linecap:round; stroke-linejoin:round; stroke-width:4; stroke-opacity:1; fill:none" points="148.207,53.6113 167.105,53.6113 "/>
<path clip-path="url(#clip130)" d="M51.5603 1446.81 Q51.5603 1439.38 53.4378 1435.33 Q56.0563 1429.3 62.2322 1429.3 Q63.5414 1429.3 64.9001 1429.67 Q66.2835 1430.02 68.0127 1431.38 Q69.7667 1432.73 70.8289 1434.96 Q72.8546 1439.26 72.8546 1446.81 Q72.8546 1454.2 70.9771 1458.23 Q68.2351 1464.11 62.1827 1464.11 Q59.91 1464.11 57.5879 1462.95 Q55.2905 1461.79 53.833 1458.99 Q51.5603 1454.82 51.5603 1446.81 M55.7599 1446.2 Q55.7599 1453.83 56.3033 1456.87 Q56.9209 1460.15 58.6008 1461.59 Q60.3053 1463 62.1827 1463 Q64.2084 1463 65.8883 1461.49 Q67.5928 1459.96 68.1116 1456.67 Q68.6797 1453.44 68.655 1446.2 Q68.655 1439.16 68.161 1436.34 Q67.494 1433.06 65.7153 1431.75 Q63.9614 1430.41 62.1827 1430.41 Q61.5158 1430.41 60.7994 1430.61 Q60.1077 1430.81 59.0948 1431.38 Q58.082 1431.94 57.2915 1433.35 Q56.5257 1434.76 56.1551 1436.88 Q55.7599 1439.63 55.7599 1446.2 Z" fill="#000000" fill-rule="nonzero" fill-opacity="1" /><path clip-path="url(#clip130)" d="M79.9445 1462.18 Q79.1787 1461.37 79.1787 1460.3 Q79.1787 1459.24 79.9445 1458.47 Q80.7103 1457.68 81.8713 1457.68 Q82.983 1457.68 83.7241 1458.43 Q84.4899 1459.14 84.4899 1460.33 Q84.4899 1461.49 83.6747 1462.25 Q82.8842 1463 81.8713 1463 Q80.7103 1463 79.9445 1462.18 Z" fill="#000000" fill-rule="nonzero" fill-opacity="1" /><path clip-path="url(#clip130)" d="M90.9128 1446.81 Q90.9128 1439.38 92.7902 1435.33 Q95.4088 1429.3 101.585 1429.3 Q102.894 1429.3 104.253 1429.67 Q105.636 1430.02 107.365 1431.38 Q109.119 1432.73 110.181 1434.96 Q112.207 1439.26 112.207 1446.81 Q112.207 1454.2 110.33 1458.23 Q107.588 1464.11 101.535 1464.11 Q99.2625 1464.11 96.9404 1462.95 Q94.643 1461.79 93.1855 1458.99 Q90.9128 1454.82 90.9128 1446.81 M95.1123 1446.2 Q95.1123 1453.83 95.6558 1456.87 Q96.2734 1460.15 97.9532 1461.59 Q99.6577 1463 101.535 1463 Q103.561 1463 105.241 1461.49 Q106.945 1459.96 107.464 1456.67 Q108.032 1453.44 108.007 1446.2 Q108.007 1439.16 107.513 1436.34 Q106.846 1433.06 105.068 1431.75 Q103.314 1430.41 101.535 1430.41 Q100.868 1430.41 100.152 1430.61 Q99.4601 1430.81 98.4473 1431.38 Q97.4344 1431.94 96.6439 1433.35 Q95.8781 1434.76 95.5076 1436.88 Q95.1123 1439.63 95.1123 1446.2 Z" fill="#000000" fill-rule="nonzero" fill-opacity="1" /><path clip-path="url(#clip130)" d="M52.1038 1098.79 Q52.1038 1091.35 53.9812 1087.3 Q56.5998 1081.27 62.7756 1081.27 Q64.0849 1081.27 65.4436 1081.64 Q66.827 1081.99 68.5562 1083.35 Q70.3102 1084.71 71.3724 1086.93 Q73.3981 1091.23 73.3981 1098.79 Q73.3981 1106.18 71.5206 1110.2 Q68.7785 1116.08 62.7262 1116.08 Q60.4535 1116.08 58.1314 1114.92 Q55.834 1113.76 54.3765 1110.97 Q52.1038 1106.79 52.1038 1098.79 M56.3033 1098.17 Q56.3033 1105.8 56.8468 1108.84 Q57.4644 1112.13 59.1442 1113.56 Q60.8488 1114.97 62.7262 1114.97 Q64.7519 1114.97 66.4317 1113.46 Q68.1363 1111.93 68.655 1108.65 Q69.2232 1105.41 69.1985 1098.17 Q69.1985 1091.13 68.7044 1088.31 Q68.0374 1085.03 66.2588 1083.72 Q64.5049 1082.39 62.7262 1082.39 Q62.0592 1082.39 61.3428 1082.58 Q60.6511 1082.78 59.6383 1083.35 Q58.6255 1083.92 57.835 1085.33 Q57.0692 1086.73 56.6986 1088.86 Q56.3033 1091.6 56.3033 1098.17 Z" fill="#000000" fill-rule="nonzero" fill-opacity="1" /><path clip-path="url(#clip130)" d="M80.4879 1114.15 Q79.7221 1113.34 79.7221 1112.28 Q79.7221 1111.21 80.4879 1110.45 Q81.2537 1109.66 82.4148 1109.66 Q83.5265 1109.66 84.2676 1110.4 Q85.0334 1111.12 85.0334 1112.3 Q85.0334 1113.46 84.2181 1114.23 Q83.4276 1114.97 82.4148 1114.97 Q81.2537 1114.97 80.4879 1114.15 Z" fill="#000000" fill-rule="nonzero" fill-opacity="1" /><path clip-path="url(#clip130)" d="M91.9997 1114.97 Q91.9997 1114.06 92.0738 1113.78 Q92.1726 1113.51 92.5679 1113.09 L102.276 1102.27 Q107.588 1096.29 107.588 1091.08 Q107.588 1087.7 105.809 1085.28 Q104.055 1082.86 100.819 1082.86 Q98.5955 1082.86 96.718 1084.21 Q94.8406 1085.57 93.976 1087.99 Q94.1242 1087.94 94.643 1087.94 Q95.9028 1087.94 96.5945 1088.73 Q97.3109 1089.53 97.3109 1090.59 Q97.3109 1091.95 96.4216 1092.61 Q95.557 1093.26 94.6924 1093.26 Q94.3465 1093.26 93.8772 1093.18 Q93.4325 1093.11 92.7161 1092.42 Q91.9997 1091.7 91.9997 1090.44 Q91.9997 1086.91 94.6677 1084.09 Q97.3603 1081.27 101.461 1081.27 Q106.105 1081.27 109.144 1084.04 Q112.207 1086.78 112.207 1091.08 Q112.207 1092.59 111.738 1093.97 Q111.293 1095.33 110.675 1096.39 Q110.083 1097.45 108.452 1099.16 Q106.822 1100.86 105.512 1102.07 Q104.203 1103.28 101.263 1105.85 L95.9028 1111.07 L105.018 1111.07 Q109.465 1111.07 109.811 1110.67 Q110.305 1109.95 110.922 1106.18 L112.207 1106.18 L110.774 1114.97 L91.9997 1114.97 Z" fill="#000000" fill-rule="nonzero" fill-opacity="1" /><path clip-path="url(#clip130)" d="M50.9921 750.763 Q50.9921 743.327 52.8696 739.276 Q55.4881 733.248 61.664 733.248 Q62.9733 733.248 64.3319 733.619 Q65.7153 733.965 67.4446 735.323 Q69.1985 736.682 70.2607 738.905 Q72.2864 743.204 72.2864 750.763 Q72.2864 758.149 70.409 762.176 Q67.6669 768.055 61.6146 768.055 Q59.3419 768.055 57.0197 766.894 Q54.7223 765.733 53.2648 762.942 Q50.9921 758.767 50.9921 750.763 M55.1917 750.145 Q55.1917 757.779 55.7352 760.817 Q56.3528 764.103 58.0326 765.535 Q59.7371 766.944 61.6146 766.944 Q63.6402 766.944 65.3201 765.437 Q67.0246 763.905 67.5434 760.619 Q68.1116 757.383 68.0869 750.145 Q68.0869 743.105 67.5928 740.289 Q66.9258 737.003 65.1472 735.694 Q63.3932 734.36 61.6146 734.36 Q60.9476 734.36 60.2312 734.557 Q59.5395 734.755 58.5267 735.323 Q57.5138 735.891 56.7233 737.299 Q55.9575 738.708 55.587 740.832 Q55.1917 743.574 55.1917 750.145 Z" fill="#000000" fill-rule="nonzero" fill-opacity="1" /><path clip-path="url(#clip130)" d="M79.3763 766.128 Q78.6105 765.313 78.6105 764.251 Q78.6105 763.189 79.3763 762.423 Q80.1421 761.632 81.3031 761.632 Q82.4148 761.632 83.1559 762.373 Q83.9217 763.09 83.9217 764.276 Q83.9217 765.437 83.1065 766.202 Q82.316 766.944 81.3031 766.944 Q80.1421 766.944 79.3763 766.128 Z" fill="#000000" fill-rule="nonzero" fill-opacity="1" /><path clip-path="url(#clip130)" d="M89.7764 758.594 L89.7764 757.037 L105.315 733.298 Q105.71 732.68 106.328 732.705 Q106.896 732.705 107.019 732.927 Q107.143 733.149 107.143 734.014 L107.143 757.037 L112.207 757.037 L112.207 758.594 L107.143 758.594 L107.143 762.991 Q107.143 764.448 107.736 764.918 Q108.353 765.387 110.972 765.387 L112.034 765.387 L112.034 766.944 Q109.959 766.795 105.167 766.795 Q100.399 766.795 98.3238 766.944 L98.3238 765.387 L99.386 765.387 Q102.005 765.387 102.622 764.943 Q103.24 764.473 103.24 762.991 L103.24 758.594 L89.7764 758.594 M91.2092 757.037 L103.536 757.037 L103.536 738.164 L91.2092 757.037 Z" fill="#000000" fill-rule="nonzero" fill-opacity="1" /><path clip-path="url(#clip130)" d="M51.7085 402.737 Q51.7085 395.301 53.586 391.25 Q56.2045 385.222 62.3804 385.222 Q63.6897 385.222 65.0483 385.593 Q66.4317 385.938 68.161 387.297 Q69.9149 388.656 70.9771 390.879 Q73.0028 395.178 73.0028 402.737 Q73.0028 410.123 71.1254 414.15 Q68.3833 420.029 62.331 420.029 Q60.0583 420.029 57.7361 418.868 Q55.4387 417.707 53.9812 414.915 Q51.7085 410.741 51.7085 402.737 M55.9081 402.119 Q55.9081 409.752 56.4516 412.791 Q57.0692 416.077 58.749 417.509 Q60.4535 418.917 62.331 418.917 Q64.3566 418.917 66.0365 417.411 Q67.741 415.879 68.2598 412.593 Q68.828 409.357 68.8032 402.119 Q68.8032 395.079 68.3092 392.263 Q67.6422 388.977 65.8635 387.668 Q64.1096 386.334 62.331 386.334 Q61.664 386.334 60.9476 386.531 Q60.2559 386.729 59.243 387.297 Q58.2302 387.865 57.4397 389.273 Q56.6739 390.681 56.3033 392.806 Q55.9081 395.548 55.9081 402.119 Z" fill="#000000" fill-rule="nonzero" fill-opacity="1" /><path clip-path="url(#clip130)" d="M80.0927 418.102 Q79.3269 417.287 79.3269 416.225 Q79.3269 415.163 80.0927 414.397 Q80.8585 413.606 82.0195 413.606 Q83.1312 413.606 83.8723 414.347 Q84.6381 415.064 84.6381 416.249 Q84.6381 417.411 83.8229 418.176 Q83.0324 418.917 82.0195 418.917 Q80.8585 418.917 80.0927 418.102 Z" fill="#000000" fill-rule="nonzero" fill-opacity="1" /><path clip-path="url(#clip130)" d="M91.2092 402.934 Q91.2092 394.98 95.2605 390.113 Q99.3119 385.222 104.524 385.222 Q107.563 385.222 109.243 386.778 Q110.947 388.31 110.947 390.681 Q110.947 391.991 110.181 392.559 Q109.416 393.127 108.625 393.127 Q107.711 393.127 106.995 392.51 Q106.278 391.892 106.278 390.78 Q106.278 388.508 109.07 388.508 Q107.76 386.482 104.623 386.482 Q103.66 386.482 102.672 386.778 Q101.683 387.05 100.399 387.989 Q99.1143 388.928 98.1261 390.41 Q97.138 391.892 96.4463 394.683 Q95.7546 397.475 95.7546 401.106 L95.7546 402.317 Q97.8297 397.302 102.079 397.327 Q106.328 397.327 109.267 400.563 Q112.207 403.799 112.207 408.591 Q112.207 413.507 109.144 416.768 Q106.081 420.029 101.782 420.029 Q99.8554 420.029 98.1014 419.214 Q96.3722 418.423 94.7418 416.595 Q93.1361 414.767 92.1726 411.259 Q91.2092 407.752 91.2092 402.934 M95.8534 407.48 Q95.8534 412.445 96.7675 414.817 Q96.9157 415.212 97.2368 415.755 Q97.5827 416.299 98.1508 417.015 Q98.7437 417.707 99.7072 418.176 Q100.671 418.621 101.782 418.621 Q105.167 418.621 106.797 415.335 Q107.662 413.507 107.662 408.542 Q107.662 403.478 106.748 401.625 Q105.191 398.488 102.029 398.488 Q99.9048 398.488 98.4226 399.945 Q96.9651 401.403 96.3969 403.354 Q95.8534 405.306 95.8534 407.48 Z" fill="#000000" fill-rule="nonzero" fill-opacity="1" /><path clip-path="url(#clip130)" d="M51.7085 54.7106 Q51.7085 47.2749 53.586 43.2236 Q56.2045 37.196 62.3804 37.196 Q63.6897 37.196 65.0483 37.5665 Q66.4317 37.9124 68.161 39.271 Q69.9149 40.6297 70.9771 42.853 Q73.0028 47.1514 73.0028 54.7106 Q73.0028 62.0969 71.1254 66.1236 Q68.3833 72.003 62.331 72.003 Q60.0583 72.003 57.7361 70.8419 Q55.4387 69.6809 53.9812 66.8894 Q51.7085 62.7145 51.7085 54.7106 M55.9081 54.0931 Q55.9081 61.7264 56.4516 64.7649 Q57.0692 68.0505 58.749 69.4833 Q60.4535 70.8913 62.331 70.8913 Q64.3566 70.8913 66.0365 69.3844 Q67.741 67.8528 68.2598 64.5673 Q68.828 61.3311 68.8032 54.0931 Q68.8032 47.0526 68.3092 44.2364 Q67.6422 40.9509 65.8635 39.6416 Q64.1096 38.3076 62.331 38.3076 Q61.664 38.3076 60.9476 38.5052 Q60.2559 38.7029 59.243 39.271 Q58.2302 39.8392 57.4397 41.2473 Q56.6739 42.6554 56.3033 44.7799 Q55.9081 47.522 55.9081 54.0931 Z" fill="#000000" fill-rule="nonzero" fill-opacity="1" /><path clip-path="url(#clip130)" d="M80.0927 70.0761 Q79.3269 69.2609 79.3269 68.1987 Q79.3269 67.1364 80.0927 66.3706 Q80.8585 65.5801 82.0195 65.5801 Q83.1312 65.5801 83.8723 66.3212 Q84.6381 67.0376 84.6381 68.2234 Q84.6381 69.3844 83.8229 70.1502 Q83.0324 70.8913 82.0195 70.8913 Q80.8585 70.8913 80.0927 70.0761 Z" fill="#000000" fill-rule="nonzero" fill-opacity="1" /><path clip-path="url(#clip130)" d="M91.2092 63.258 Q91.2092 57.6009 98.4967 53.9448 Q95.3594 51.8204 94.7912 51.2028 Q92.5679 48.7324 92.5679 45.6445 Q92.5679 42.1119 95.2358 39.6663 Q97.9285 37.196 101.733 37.196 Q105.364 37.196 108.106 39.2957 Q110.848 41.3955 110.848 44.7305 Q110.848 49.4241 104.722 52.5862 Q108.773 55.1059 109.737 56.1681 Q112.207 58.9102 112.207 62.3934 Q112.207 66.4447 109.094 69.2362 Q105.982 72.003 101.683 72.003 Q97.4838 72.003 94.3465 69.5574 Q91.2092 67.1117 91.2092 63.258 M93.7289 63.258 Q93.7289 66.3953 96.0758 68.4951 Q98.4473 70.5949 101.733 70.5949 Q104.92 70.5949 107.291 68.7669 Q109.687 66.9388 109.687 64.2214 Q109.687 63.1592 109.317 62.2452 Q108.971 61.3311 108.255 60.6147 Q107.563 59.8736 107.118 59.5525 Q106.698 59.2067 105.883 58.6385 L99.6577 54.7106 Q93.7289 57.9962 93.7289 63.258 M94.7912 43.6682 Q94.7912 46.0892 97.3356 47.769 L103.61 51.8204 Q108.625 48.8807 108.625 44.7305 Q108.625 42.0378 106.575 40.2592 Q104.524 38.4558 101.683 38.4558 Q98.8919 38.4558 96.8416 39.938 Q94.7912 41.3955 94.7912 43.6682 Z" fill="#000000" fill-rule="nonzero" fill-opacity="1" /><polyline clip-path="url(#clip132)" style="stroke:#1f77b4; stroke-linecap:round; stroke-linejoin:round; stroke-width:10; stroke-opacity:1; fill:none" points="210.6,1445.72 253.044,1375.19 295.488,1305.74 337.932,1237.46 380.377,1170.47 422.821,1104.84 465.265,1040.68 507.709,978.079 550.153,917.118 592.597,857.879 635.041,800.44 677.486,744.874 719.93,691.251 762.374,639.636 804.818,590.088 847.262,542.666 889.706,497.419 932.15,454.397 974.595,413.641 1017.04,375.192 1059.48,339.082 1101.93,305.342 1144.37,273.996 1186.82,245.067 1229.26,218.571 1271.7,194.519 1314.15,172.919 1356.59,153.776 1399.04,137.089 1441.48,122.852 1483.92,111.056 1526.37,101.69 1568.81,94.7359 1611.26,90.1728 1653.7,87.9763 1696.14,88.1182 1738.59,90.5667 1781.03,95.2864 1823.48,102.239 1865.92,111.381 1908.37,122.669 1950.81,136.055 1993.25,151.486 2035.7,168.91 2078.14,188.269 2120.59,209.505 2163.03,232.555 2205.47,257.358 2247.92,283.845 2290.36,311.951 "/>
</svg>
